<svg xmlns="http://www.w3.org/2000/svg" viewBox="0 0 83 32" fill="none" role="img" aria-label="Accessibility">
  <ellipse cx="22" cy="16" rx="22" ry="15" fill="#BFD7E5"/>
  <g fill="#3A3A3A">
    <circle cx="22.5" cy="9.5" r="2.2"/>
    <path d="M22.5 12.5c-1.6 0-2.8 1-2.8 2.6v3.2h3.6v2.4l-2 3.6h1.6l2.4-3.6v-3.2h-3.2v-1.6c0-1.2 0.4-2 1.6-2h1.6v-1.2h-1.6c-0.4 0-0.8 0-1.2 0z"/>
    <circle cx="22.5" cy="20" r="6" fill="none" stroke="#3A3A3A" stroke-width="1.4"/>
  </g>
  <ellipse cx="61" cy="16" rx="22" ry="15" fill="#BFD7E5"/>
  <g fill="#3A3A3A">
    <rect x="51" y="7" width="20" height="14" rx="1.4" fill="none" stroke="#3A3A3A" stroke-width="1.4"/>
    <rect x="53" y="9" width="16" height="8" fill="#3A3A3A"/>
    <rect x="59.5" y="21.5" width="3" height="2" fill="#3A3A3A"/>
    <rect x="57" y="23.5" width="8" height="1.3" rx="0.6" fill="#3A3A3A"/>
  </g>
</svg>
