<?xml version="1.0" encoding="utf-8"?>
<svg xmlns="http://www.w3.org/2000/svg" height="22px" version="1.1" viewBox="0 0 80 22" width="80px">
    <title>SALE Copy</title>
    <g fill="none" fill-rule="evenodd" id="SALE-Copy" stroke="none" stroke-width="1">
        <rect fill="#FFFFFF" height="22" width="80" x="0" y="0"/>
        <rect height="21" id="Rectangle" stroke="#E03614" width="79" x="0.5" y="0.5"/>
        <g fill="#E03614" fill-rule="nonzero" transform="translate(28.000000, 7.000000)">
            <path d="M4.488,1.969 C4.268,0.77 3.652,0 2.277,0 C0.968,0 0.165,0.77 0.165,1.991 C0.165,4.521 3.366,4.312 3.366,6.05 C3.366,6.666 2.959,6.996 2.365,6.996 C1.661,6.996 1.364,6.589 1.21,5.786 L0,5.995 C0.253,7.414 0.913,8.096 2.321,8.096 C3.729,8.096 4.631,7.326 4.631,5.951 C4.631,3.366 1.397,3.564 1.397,1.914 C1.397,1.408 1.738,1.1 2.288,1.1 C2.904,1.1 3.19,1.518 3.355,2.189 L4.488,1.969 Z" id="Path"/>
            <path d="M11.483,7.997 L9.646,0.099 L7.897,0.099 L6.104,7.997 L7.424,7.997 L7.831,5.973 L9.723,5.973 L10.141,7.997 L11.483,7.997 Z M8.755,1.375 L8.788,1.375 L9.492,4.818 L8.062,4.818 L8.755,1.375 Z" id="Shape"/>
            <polygon id="Path" points="17.268 7.997 17.268 6.809 14.628 6.809 14.628 0.099 13.319 0.099 13.319 7.997"/>
            <polygon id="Path" points="23.229 7.997 23.229 6.809 20.358 6.809 20.358 4.488 22.393 4.488 22.393 3.344 20.358 3.344 20.358 1.287 23.086 1.287 23.086 0.099 19.049 0.099 19.049 7.997"/>
        </g>
    </g>
</svg>